<svg width="2608" height="1238" viewBox="0 0 2608 1238" fill="none" xmlns="http://www.w3.org/2000/svg">
<path d="M3.5 1194C22.5 1151.67 82.2 1079.7 169 1130.5C188.333 1138.83 236.3 1150.5 273.5 1130.5C310.7 1110.5 531 1127.83 636.5 1139C654.833 1137 684.5 1140.3 656.5 1169.5C621.5 1206 559.5 1262.5 498.5 1216C449.7 1178.8 445.167 1149.17 449 1139L941 1159.5C940 1078.83 954.7 910 1021.5 880C1088.3 850 1142 890.833 1160.5 915C1179.67 941.5 1214.3 1016.3 1199.5 1103.5C1193.33 1145 1164.8 1229.2 1100 1234C1035.2 1238.8 1004.33 1224.33 997 1216.5C983.167 1206.33 956 1167.3 958 1092.5C958.667 1041.33 972.3 934.2 1021.5 915C1070.7 895.8 1114 914 1129.5 925.5C1148.67 938 1181.7 989.5 1160.5 1095.5C1139.3 1201.5 1078 1182.33 1050 1159.5C1038.33 1152.17 1016.3 1123.1 1021.5 1065.5C1026.7 1007.9 1058 975.167 1073 966C1093.33 964.167 1135.4 973.7 1141 1026.5C1141 1027.7 1143 1066 1144 1085C1146.17 1092.67 1162.6 1107.8 1211 1107C1218 1107.67 1231.7 1104.9 1230.5 1088.5C1229.3 1072.1 1222 1008.67 1218.5 979C1215.67 940.167 1203.4 858.3 1177 841.5C1163.33 831 1129.7 811.1 1104.5 815.5C1127.33 827.833 1175.3 857.3 1184.5 876.5C1193.83 882.333 1212.8 889.4 1214 871V844.5H1218.5V781.5C1226.17 783.167 1241.5 781.6 1241.5 762C1241.5 742.4 1244.17 458.167 1245.5 318.5C1246.33 269.833 1244.8 172.1 1232 170.5C1216 168.5 1011.5 140 976 148.5C1012.83 160.667 1111.8 184.4 1213 182C1221.5 139.833 1233.4 45.1 1213 3.5C1154.17 4 1021 10.1 959 30.5C897 50.9 817.5 62 785.5 65C734 67.1667 617 79.7 561 112.5L511.5 137L781 112.5C768 123.333 744.9 154.7 756.5 193.5C634.333 215.833 376.1 259.3 320.5 254.5C321.667 232.833 336.1 185.3 384.5 168.5L745 124.5C736.333 130.333 722.2 149.9 735 181.5L305 254.5C294 274.167 277.5 314.6 299.5 319C401.833 303.667 617.3 272.1 660.5 268.5C714.5 264 984 237 1171.5 323C1173.5 360.833 1174.2 444.6 1161 477C1018.5 483.833 727.5 509.6 703.5 558C685.833 579.667 648.3 657.3 639.5 794.5C633 812.333 632 848.3 680 849.5C740 851 909 869 950.5 815.5C963 800.667 998.1 770.8 1038.5 770C1078.9 769.2 1152.67 767 1184.5 766C1159 758 1084.9 744.8 992.5 756C988.1 756 926.333 800.667 896 823L671.5 827C653.5 854.5 622.9 909.5 644.5 909.5C671.5 909.5 797.5 900 802 935C808.333 955.5 814.6 996.5 789 996.5C763.4 996.5 666 992.5 620.5 990.5L587.5 1017H537L523 1046.5H347L331 1017C315.333 1021 283.5 1021.3 281.5 990.5L239 993.5C228.667 1033.33 216.8 1113.1 252 1113.5C287.2 1113.9 469.333 1113.67 556 1113.5C542.333 1106.67 518.6 1085.4 533 1055L347 1058.5C349.167 1069.83 347 1092.8 321 1094C293.667 1097 239 1098.2 239 1079C236.167 1024 233.7 911 246.5 899C281.333 891.5 331.2 871.1 252 849.5C249.5 760.333 248.2 581.2 263 578C277.8 574.8 575.833 542.333 723 526.5C742.5 443.667 773.7 278.7 742.5 281.5C711.3 284.3 437.833 320 305 337.5C286 409.833 256.3 553.6 289.5 550C322.7 546.4 579.333 526.5 703.5 517C669 521 602.4 552.9 612 648.5L328 658.5C332.333 644.333 329.1 610.2 281.5 587C362.833 575 536.9 553.7 582.5 564.5L571.5 618C568.167 626.333 575.7 645.5 632.5 655.5C629.833 697.333 620.3 781.7 603.5 784.5C582.5 788 299 810 298.5 792.5C298 775 295.5 679 314 679.5C332.5 680 602.5 658 601 686C599.5 714 597 879.5 564 883C537.6 885.8 401 892.167 336 895C335.5 868.5 336.9 815.7 346.5 816.5C358.5 817.5 566 801.5 567 816.5C568 831.5 574 841 557 841C540 841 324.5 839.5 354 844.5C383.5 849.5 553 852.5 532.5 856C516.1 858.8 406.667 862.833 354 864.5C361.167 870.5 370.6 883.2 351 886C331.4 888.8 303.833 895.833 292.5 899C287.833 928.5 283.4 987.6 303 988C322.6 988.4 507.167 989.833 597 990.5C602.833 963.5 611.8 909.5 601 909.5C587.5 909.5 311.5 907 310.5 915.5C309.5 924 302.5 960 320.5 960C334.9 960 530.167 958 626 957C630.5 949.19 640.5 931.156 644.5 921.5L917.5 938.5C936.167 884 1006.3 780.8 1137.5 804C1171 806.833 1238.7 837 1241.5 935C1245 1057.5 1230.5 1103.5 1266.5 1103.5C1302.5 1103.5 1698.5 1099.5 1700 1078C1701.5 1056.5 1707.5 953 1688 951.5C1668.5 950 1258.5 934 1258.5 948C1258.5 962 1253.5 991 1266.5 991.5C1279.5 992 1667 980 1672 996C1677 1012 1691 1054.5 1675.5 1055C1660 1055.5 1266.5 1048.5 1266.5 1062.5C1266.5 1076.5 1264 1088.5 1277 1088.5C1287.4 1088.5 1508.67 1083.17 1618 1080.5C1615.5 1122.17 1637.5 1190.5 1736.5 1190.5C1756.5 1191.83 1805 1186.4 1839 1154C1863.83 1113.33 1899.3 1009.8 1842.5 921C1816.67 892.5 1741 854.2 1645 929C1643 932.667 1655 940.5 1719 942.5L1714 1107C1715.5 1125.33 1729.4 1160.8 1773 1156C1816.6 1151.2 1835.17 1127.67 1839 1116.5C1854.67 1071.67 1873.8 972.8 1825 936C1821.5 936 1765 894.5 1732.5 969C1731.33 1004.33 1734.2 1080.2 1755 1101C1775.8 1121.8 1804.67 1107 1816.5 1097C1821.67 1092.5 1835.3 1077.8 1848.5 1055C1865 1026.5 1845.5 966.5 1867.5 921C1885.1 884.6 1930.17 884.167 1950.5 888.5C1968.67 895.5 2007 925.5 2015 989.5C2023 1053.5 2010.33 1100.83 2003 1116.5C1996.67 1130.33 1975.6 1159.2 1942 1164C1908.4 1168.8 1887.33 1132 1881 1113C1879.17 1063.67 1880.7 959.2 1901.5 936C1922.3 912.8 1957.83 926.333 1973 936C1990.83 960.5 2018.9 1030.2 1988.5 1113C1979.67 1122.33 1955.4 1133.1 1929 1101.5C1902.6 1069.9 1905.33 1029 1910 1012.5C1925.83 987.667 1981.1 938.2 2075.5 939C2105.33 936.833 2162.1 941.4 2150.5 977C2136 1021.5 2159.5 1154 2226 1154C2292.5 1154 2344.5 1154.5 2347.5 1101.5C2350.5 1048.5 2355.5 924.5 2300 912C2244.5 899.5 2174.5 903 2172 921C2169.5 939 2168.5 1097.5 2203.5 1116.5C2222.33 1132.5 2272.7 1153.9 2323.5 1111.5C2336.17 1098.17 2352.9 1051.1 2318.5 969.5C2284.1 887.9 2258.83 938.833 2250.5 974.5C2243.5 1022.33 2238.4 1118.5 2274 1120.5C2318.5 1123 2435 1136.5 2439 1089.5C2443 1042.5 2453 924 2408 916C2372 909.6 2357.67 937.333 2355 952C2354.67 988.667 2357.3 1066.5 2370.5 1084.5C2383.7 1102.5 2393.33 1103.33 2396.5 1101.5C2402.17 1103.67 2415.4 1097.9 2423 1057.5C2432.5 1007 2436.5 904 2370.5 899C2317.7 895 1616.83 866.333 1273 852.5V25H1332.5L1318 827L2461 883.5C2468.33 712.667 2478.6 369.3 2461 362.5C2443.4 355.7 1713.33 144.667 1350.5 40C1348.67 75 1346.6 145 1353 145C1359.4 145 1372.67 145 1378.5 145C1382.17 129.167 1392.4 97.8 1404 99C1415.6 100.2 2104.5 288.833 2447.5 383L2443 856.5C2076.67 842.5 1343.8 811.5 1343 799.5C1342 784.5 1340 159 1346.5 159C1353 159 1398.5 184 1411.5 120C1752.17 208.5 2433.5 387.9 2433.5 397.5C2433.5 407.1 2433.5 696.833 2433.5 840.5C2450.83 830 2487.5 819.7 2495.5 862.5C2507.83 880 2534.8 909.3 2544 886.5C2555.5 858 2567.5 816.5 2605.5 840.5" stroke="#8E8E8E" stroke-width="6"/>
</svg>
