<svg width="2607" height="1239" viewBox="0 0 2607 1239" fill="none" xmlns="http://www.w3.org/2000/svg">
<path d="M2604 1194.5C2585 1152.17 2525.3 1080.2 2438.5 1131C2419.17 1139.33 2371.2 1151 2334 1131C2296.8 1111 2076.5 1128.33 1971 1139.5C1952.67 1137.5 1923 1140.8 1951 1170C1986 1206.5 2048 1263 2109 1216.5C2157.8 1179.3 2162.33 1149.67 2158.5 1139.5L1666.5 1160C1667.5 1079.33 1652.8 910.5 1586 880.5C1519.2 850.5 1465.5 891.333 1447 915.5C1427.83 942 1393.2 1016.8 1408 1104C1414.17 1145.5 1442.7 1229.7 1507.5 1234.5C1572.3 1239.3 1603.17 1224.83 1610.5 1217C1624.33 1206.83 1651.5 1167.8 1649.5 1093C1648.83 1041.83 1635.2 934.7 1586 915.5C1536.8 896.3 1493.5 914.5 1478 926C1458.83 938.5 1425.8 990 1447 1096C1468.2 1202 1529.5 1182.83 1557.5 1160C1569.17 1152.67 1591.2 1123.6 1586 1066C1580.8 1008.4 1549.5 975.667 1534.5 966.5C1514.17 964.667 1472.1 974.2 1466.5 1027C1466.5 1028.2 1464.5 1066.5 1463.5 1085.5C1461.33 1093.17 1444.9 1108.3 1396.5 1107.5C1389.5 1108.17 1375.8 1105.4 1377 1089C1378.2 1072.6 1385.5 1009.17 1389 979.5C1391.83 940.667 1404.1 858.8 1430.5 842C1444.17 831.5 1477.8 811.6 1503 816C1480.17 828.333 1432.2 857.8 1423 877C1413.67 882.833 1394.7 889.9 1393.5 871.5V845H1389V782C1381.33 783.667 1366 782.1 1366 762.5C1366 742.9 1363.33 458.667 1362 319C1361.17 270.333 1362.7 172.6 1375.5 171C1391.5 169 1596 140.5 1631.5 149C1594.67 161.167 1495.7 184.9 1394.5 182.5C1386 140.333 1374.1 45.6 1394.5 4C1453.33 4.5 1586.5 10.6 1648.5 31C1710.5 51.4 1790 62.5 1822 65.5C1873.5 67.6667 1990.5 80.2 2046.5 113L2096 137.5L1826.5 113C1839.5 123.833 1862.6 155.2 1851 194C1973.17 216.333 2231.4 259.8 2287 255C2285.83 233.333 2271.4 185.8 2223 169L1862.5 125C1871.17 130.833 1885.3 150.4 1872.5 182L2302.5 255C2313.5 274.667 2330 315.1 2308 319.5C2205.67 304.167 1990.2 272.6 1947 269C1893 264.5 1623.5 237.5 1436 323.5C1434 361.333 1433.3 445.1 1446.5 477.5C1589 484.333 1880 510.1 1904 558.5C1921.67 580.167 1959.2 657.8 1968 795C1974.5 812.833 1975.5 848.8 1927.5 850C1867.5 851.5 1698.5 869.5 1657 816C1644.5 801.167 1609.4 771.3 1569 770.5C1528.6 769.7 1454.83 767.5 1423 766.5C1448.5 758.5 1522.6 745.3 1615 756.5C1619.4 756.5 1681.17 801.167 1711.5 823.5L1936 827.5C1954 855 1984.6 910 1963 910C1936 910 1810 900.5 1805.5 935.5C1799.17 956 1792.9 997 1818.5 997C1844.1 997 1941.5 993 1987 991L2020 1017.5H2070.5L2084.5 1047H2260.5L2276.5 1017.5C2292.17 1021.5 2324 1021.8 2326 991L2368.5 994C2378.83 1033.83 2390.7 1113.6 2355.5 1114C2320.3 1114.4 2138.17 1114.17 2051.5 1114C2065.17 1107.17 2088.9 1085.9 2074.5 1055.5L2260.5 1059C2258.33 1070.33 2260.5 1093.3 2286.5 1094.5C2313.83 1097.5 2368.5 1098.7 2368.5 1079.5C2371.33 1024.5 2373.8 911.5 2361 899.5C2326.17 892 2276.3 871.6 2355.5 850C2358 760.833 2359.3 581.7 2344.5 578.5C2329.7 575.3 2031.67 542.833 1884.5 527C1865 444.167 1833.8 279.2 1865 282C1896.2 284.8 2169.67 320.5 2302.5 338C2321.5 410.333 2351.2 554.1 2318 550.5C2284.8 546.9 2028.17 527 1904 517.5C1938.5 521.5 2005.1 553.4 1995.5 649L2279.5 659C2275.17 644.833 2278.4 610.7 2326 587.5C2244.67 575.5 2070.6 554.2 2025 565L2036 618.5C2039.33 626.833 2031.8 646 1975 656C1977.67 697.833 1987.2 782.2 2004 785C2025 788.5 2308.5 810.5 2309 793C2309.5 775.5 2312 679.5 2293.5 680C2275 680.5 2005 658.5 2006.5 686.5C2008 714.5 2010.5 880 2043.5 883.5C2069.9 886.3 2206.5 892.667 2271.5 895.5C2272 869 2270.6 816.2 2261 817C2249 818 2041.5 802 2040.5 817C2039.5 832 2033.5 841.5 2050.5 841.5C2067.5 841.5 2283 840 2253.5 845C2224 850 2054.5 853 2075 856.5C2091.4 859.3 2200.83 863.333 2253.5 865C2246.33 871 2236.9 883.7 2256.5 886.5C2276.1 889.3 2303.67 896.333 2315 899.5C2319.67 929 2324.1 988.1 2304.5 988.5C2284.9 988.9 2100.33 990.333 2010.5 991C2004.67 964 1995.7 910 2006.5 910C2020 910 2296 907.5 2297 916C2298 924.5 2305 960.5 2287 960.5C2272.6 960.5 2077.33 958.5 1981.5 957.5C1977 949.69 1967 931.656 1963 922L1690 939C1671.33 884.5 1601.2 781.3 1470 804.5C1436.5 807.333 1368.8 837.5 1366 935.5C1362.5 1058 1377 1104 1341 1104C1305 1104 909 1100 907.5 1078.5C906 1057 900 953.5 919.5 952C939 950.5 1349 934.5 1349 948.5C1349 962.5 1354 991.5 1341 992C1328 992.5 940.5 980.5 935.5 996.5C930.5 1012.5 916.5 1055 932 1055.5C947.5 1056 1341 1049 1341 1063C1341 1077 1343.5 1089 1330.5 1089C1320.1 1089 1098.83 1083.67 989.5 1081C992 1122.67 970 1191 871 1191C851 1192.33 802.5 1186.9 768.5 1154.5C743.667 1113.83 708.2 1010.3 765 921.5C790.833 893 866.5 854.7 962.5 929.5C964.5 933.167 952.5 941 888.5 943L893.5 1107.5C892 1125.83 878.1 1161.3 834.5 1156.5C790.9 1151.7 772.333 1128.17 768.5 1117C752.833 1072.17 733.7 973.3 782.5 936.5C786 936.5 842.5 895 875 969.5C876.167 1004.83 873.3 1080.7 852.5 1101.5C831.7 1122.3 802.833 1107.5 791 1097.5C785.833 1093 772.2 1078.3 759 1055.5C742.5 1027 762 967 740 921.5C722.4 885.1 677.333 884.667 657 889C638.833 896 600.5 926 592.5 990C584.5 1054 597.167 1101.33 604.5 1117C610.833 1130.83 631.9 1159.7 665.5 1164.5C699.1 1169.3 720.167 1132.5 726.5 1113.5C728.333 1064.17 726.8 959.7 706 936.5C685.2 913.3 649.667 926.833 634.5 936.5C616.667 961 588.6 1030.7 619 1113.5C627.833 1122.83 652.1 1133.6 678.5 1102C704.9 1070.4 702.167 1029.5 697.5 1013C681.667 988.167 626.4 938.7 532 939.5C502.167 937.333 445.4 941.9 457 977.5C471.5 1022 448 1154.5 381.5 1154.5C315 1154.5 263 1155 260 1102C257 1049 252 925 307.5 912.5C363 900 433 903.5 435.5 921.5C438 939.5 439 1098 404 1117C385.167 1133 334.8 1154.4 284 1112C271.333 1098.67 254.6 1051.6 289 970C323.4 888.4 348.667 939.333 357 975C364 1022.83 369.1 1119 333.5 1121C289 1123.5 172.5 1137 168.5 1090C164.5 1043 154.5 924.5 199.5 916.5C235.5 910.1 249.833 937.833 252.5 952.5C252.833 989.167 250.2 1067 237 1085C223.8 1103 214.167 1103.83 211 1102C205.333 1104.17 192.1 1098.4 184.5 1058C175 1007.5 171 904.5 237 899.5C289.8 895.5 990.667 866.833 1334.5 853V25.5H1275L1289.5 827.5L146.5 884C139.167 713.167 128.9 369.8 146.5 363C164.1 356.2 894.167 145.167 1257 40.5C1258.83 75.5 1260.9 145.5 1254.5 145.5C1248.1 145.5 1234.83 145.5 1229 145.5C1225.33 129.667 1215.1 98.3 1203.5 99.5C1191.9 100.7 503 289.333 160 383.5L164.5 857C530.833 843 1263.7 812 1264.5 800C1265.5 785 1267.5 159.5 1261 159.5C1254.5 159.5 1209 184.5 1196 120.5C855.333 209 174 388.4 174 398C174 407.6 174 697.333 174 841C156.667 830.5 120 820.2 112 863C99.6667 880.5 72.7 909.8 63.5 887C52 858.5 40 817 2 841" stroke="#8E8E8E" stroke-width="6"/>
</svg>
