<svg  viewBox="0 0 164 164" fill="none" xmlns="http://www.w3.org/2000/svg">
<mask id="mask0_264_6937" style="mask-type:luminance" maskUnits="userSpaceOnUse" x="15" y="15">
<path d="M145.172 100.206C141.53 112.741 134.253 123.915 124.261 132.315C114.268 140.714 102.01 145.962 89.0351 147.394C76.0604 148.827 62.9522 146.379 51.3683 140.362C39.7844 134.345 30.245 125.027 23.9564 113.589C17.6678 102.15 14.9125 89.1028 16.0388 76.0979C17.1652 63.093 22.1226 50.7142 30.2842 40.5268C38.4459 30.3394 49.4452 22.801 61.8912 18.8649C74.3371 14.9287 87.6708 14.7716 100.206 18.4134C117.015 23.297 131.196 34.658 139.629 49.9971C148.062 65.3362 150.056 83.397 145.172 100.206Z" fill="white"/>
</mask>
<g mask="url(#mask0_264_6937)">
<path d="M14.3741 152.803L14.2975 12.7405L148.654 12.6617L148.704 152.279L148.705 152.707L14.3741 152.803ZM14.9177 151.972L148.228 151.912L148.139 13.5743L14.861 13.5603L14.9177 151.972Z" fill="#231E21"/>
<path d="M59.0934 13.2452L14.4834 13.2686L14.5563 152.479L59.1663 152.455L59.0934 13.2452Z" fill="#010202"/>
<path d="M103.707 13.2179L59.0972 13.2412L59.1701 152.451L103.78 152.428L103.707 13.2179Z" fill="#FFDD0D"/>
<path d="M148.435 13.005L103.835 13.0361L103.933 152.246L148.533 152.215L148.435 13.005Z" fill="#E31D1A"/>
<g style="mix-blend-mode:overlay" opacity="0.3">
<path d="M135.815 52.4809C138.025 64.1445 137.417 76.1673 134.041 87.5484C124.176 121.504 93.6767 142.468 65.905 134.399C38.1333 126.331 23.6322 92.2624 33.4889 58.3352C36.7339 46.917 42.6592 36.439 50.7717 27.7734C40.6106 33.8101 32.4353 42.6849 27.2515 53.3065C22.0678 63.928 20.1015 75.8331 21.5945 87.5575C23.0875 99.2818 27.9747 110.314 35.655 119.298C43.3353 128.281 53.4739 134.824 64.8236 138.121C76.1734 141.419 88.2393 141.327 99.5376 137.857C110.836 134.388 120.874 127.691 128.416 118.592C135.959 109.493 140.678 98.3875 141.993 86.6419C143.307 74.8962 141.16 63.0224 135.815 52.4809Z" fill="white"/>
</g>
<path opacity="0.5" d="M138.02 69.5538C132.562 88.3372 106.399 97.2415 79.5688 89.4465C52.7382 81.6515 35.4192 60.1145 40.8763 41.3311C46.3334 22.5478 72.4964 13.6435 99.327 21.4385C126.158 29.2335 143.477 50.7705 138.02 69.5538Z" fill="url(#paint0_linear_264_6937)"/>
<g style="mix-blend-mode:overlay">
<path d="M22.3474 63.6375C24.5966 55.8738 27.9333 48.4675 32.2583 41.6391C22.1862 54.7043 17.4247 71.0937 18.9281 87.5219C18.9353 79.439 20.0865 71.3978 22.3474 63.6375Z" fill="white"/>
<path d="M142.276 97.6992C144.534 89.9376 145.682 81.8954 145.686 73.812C147.189 90.2402 142.428 106.63 132.356 119.695C136.684 112.868 140.024 105.462 142.276 97.6992Z" fill="white"/>
<path d="M64.5788 141.043C52.1465 137.471 41.0974 130.197 32.9025 120.189C24.7077 110.181 19.756 97.9136 18.707 85.021C19.379 98.1304 24.1182 110.705 32.2659 120.997C40.4136 131.289 51.565 138.787 64.1704 142.449C76.7758 146.111 90.209 145.755 102.603 141.431C114.997 137.107 125.736 129.03 133.328 118.321C125.534 128.645 114.78 136.349 102.498 140.408C90.2165 144.467 76.9896 144.689 64.5788 141.043Z" fill="white"/>
<path d="M99.5529 20.6609C111.985 24.2327 123.034 31.507 131.229 41.5152C139.424 51.5234 144.376 63.7905 145.425 76.6831C144.753 63.5737 140.013 50.9993 131.866 40.7074C123.718 30.4155 112.567 22.9174 99.9613 19.2552C87.3559 15.593 73.9227 15.9486 61.5287 20.2726C49.1347 24.5966 38.3956 32.6742 30.8039 43.3827C38.5977 33.0592 49.3516 25.355 61.6334 21.2958C73.9152 17.2366 87.1421 17.0151 99.5529 20.6609Z" fill="white"/>
</g>
</g>
<defs>
<linearGradient id="paint0_linear_264_6937" x1="79.6052" y1="88.9989" x2="94.8302" y2="37.0956" gradientUnits="userSpaceOnUse">
<stop stop-color="white" stop-opacity="0"/>
<stop offset="1" stop-color="white"/>
</linearGradient>
</defs>
</svg>
