<svg  viewBox="0 0 166 166" fill="none" xmlns="http://www.w3.org/2000/svg">
<mask id="mask0_264_6283" style="mask-type:luminance" maskUnits="userSpaceOnUse" x="17" y="17" >
<path d="M146.184 102.077C142.411 114.573 135.017 125.67 124.937 133.964C114.858 142.259 102.545 147.378 89.5556 148.674C76.5666 149.971 63.4848 147.386 51.9646 141.248C40.4443 135.11 31.003 125.693 24.8345 114.189C18.666 102.685 16.0475 89.6096 17.31 76.6173C18.5724 63.6249 23.6592 51.2987 31.9271 41.1973C40.195 31.0959 51.2726 23.6731 63.7591 19.8675C76.2456 16.0619 89.5802 16.0444 102.077 19.8173C118.834 24.8766 132.895 36.3855 141.167 51.8121C149.438 67.2387 151.243 85.3193 146.184 102.077Z" fill="white"/>
</mask>
<g mask="url(#mask0_264_6283)">
<path d="M12.7097 130.679L12.2317 37.567L151.626 36.8246L152.102 129.665L152.101 129.946L12.7097 130.679ZM13.272 130.097L151.516 129.394L151.074 37.4414L12.8045 38.1264L13.272 130.097Z" fill="#231E21"/>
<path d="M151.183 12.2222L12.3647 12.9248L13.0857 155.363L151.904 154.66L151.183 12.2222Z" fill="#BE2B25"/>
<path d="M110.91 75.4969L90.2392 75.5966L90.1395 54.9255L73.8937 55.0033L74.0001 75.6868L53.329 75.7865L53.4068 92.0323L74.0778 91.9327L74.187 112.607L90.4262 112.516L90.3265 91.8454L110.998 91.7457L110.91 75.4969Z" fill="white"/>
<g style="mix-blend-mode:overlay" opacity="0.3">
<path d="M137.327 54.2559C139.415 65.942 138.681 77.9578 135.186 89.3029C124.966 123.154 94.2488 143.796 66.5631 135.438C38.8774 127.079 24.734 92.8605 34.9455 59.0384C38.3098 47.6548 44.3445 37.2395 52.5472 28.6593C42.3235 34.5892 34.0558 43.3779 28.7611 53.9446C23.4663 64.5113 21.3754 76.3952 22.7456 88.1345C24.1157 99.8738 28.8872 110.957 36.473 120.02C44.0588 129.083 54.1282 135.732 65.4428 139.148C76.7574 142.564 88.8237 142.599 100.158 139.248C111.492 135.897 121.599 129.306 129.237 120.286C136.874 111.266 141.709 100.211 143.147 88.4797C144.584 76.7484 142.561 64.8528 137.327 54.2559Z" fill="white"/>
</g>
<g style="mix-blend-mode:overlay">
<path d="M23.7482 64.2234C26.0785 56.4837 29.4927 49.1128 33.8889 42.3299C23.6806 55.289 18.7476 71.6276 20.0789 88.0707C20.1708 79.9883 21.4061 71.9596 23.7482 64.2234Z" fill="white"/>
<path d="M143.314 99.5392C145.653 91.8016 146.885 83.7719 146.974 75.689C148.305 92.132 143.372 108.471 133.164 121.43C137.563 114.648 140.98 107.278 143.314 99.5392Z" fill="white"/>
<path d="M65.1668 142.067C52.7726 138.365 41.8002 130.975 33.7106 120.882C25.6211 110.789 20.7982 98.4702 19.8843 85.5674C20.4189 98.6831 25.0261 111.306 33.0656 121.683C41.105 132.06 52.1774 139.674 64.7437 143.468C77.3101 147.262 90.7462 147.047 103.185 142.853C115.623 138.659 126.447 130.695 134.15 120.066C126.248 130.308 115.414 137.899 103.091 141.829C90.7672 145.759 77.5387 145.842 65.1668 142.067Z" fill="white"/>
<path d="M101.4 22.0575C113.794 25.7593 124.766 33.1489 132.856 43.2424C140.945 53.3359 145.768 65.6542 146.682 78.557C146.148 65.4413 141.54 52.8179 133.501 42.4413C125.461 32.0646 114.389 24.4502 101.823 20.6562C89.2564 16.8622 75.8202 17.0771 63.3817 21.271C50.9431 25.465 40.12 33.4297 32.4166 44.0582C40.3181 33.8169 51.152 26.2256 63.4756 22.2953C75.7992 18.3649 89.0277 18.282 101.4 22.0575Z" fill="white"/>
</g>
</g>
</svg>
