<svg width="2402" height="960" viewBox="0 0 2402 960" fill="none" xmlns="http://www.w3.org/2000/svg">
<path d="M1 1C24 106.333 115.1 323.5 295.5 349.5C521 382 595 354.5 556 315C517 275.5 451 406.5 497 419.5C533.8 429.9 708.667 453.833 791.5 464.5C751.167 502.5 668.3 591.4 659.5 643C655.833 648 674.4 678.7 778 761.5C881.6 844.3 931.5 868.333 943.5 870C971.833 848.833 1040.9 785.5 1090.5 701.5C1097.33 691.5 1105.2 668.2 1082 655L822 451.5C825.5 512.667 838.6 645.2 863 686C932.5 676 1080.7 657.5 1117.5 663.5C1163.5 671 1267 672.5 1280.5 755C1280.5 758.5 1288.5 797.5 1219.5 802C1212.33 799.167 1202.3 786.8 1219.5 760C1236.7 733.2 1271.67 759.833 1287 776.5C1329.67 817.667 1430.3 896.3 1491.5 881.5C1568 863 1556.5 848.5 1627.5 848C1684.3 847.6 1792.17 884.5 1839 903L1638 953.5L1617 867.5C1592.17 866.167 1541.9 862.6 1539.5 859C1537.1 855.4 1580.17 816.167 1602 797L1822 887L1592 719.5C1587 715.833 1577.6 712.1 1580 726.5C1582.4 740.9 1595.67 771.833 1602 785.5C1770.83 841.5 2128.7 917 2191.5 917C2270 917 2164 860.5 2146.5 892.5C2129 924.5 2163 926 2191.5 940C2220 954 2385.5 969 2401.5 949.5" stroke="grey"/>
</svg>
