<svg width="168" height="168" viewBox="0 0 168 168" fill="none" xmlns="http://www.w3.org/2000/svg">
<mask id="mask0_264_4871" style="mask-type:luminance" maskUnits="userSpaceOnUse" x="18" y="18" width="133" height="133">
<path d="M146.841 104.176C142.851 116.605 135.264 127.571 125.041 135.688C114.819 143.805 102.418 148.709 89.4085 149.778C76.3989 150.848 63.3642 148.036 51.9528 141.697C40.5414 135.359 31.2659 125.779 25.2991 114.169C19.3324 102.559 16.9424 89.44 18.4314 76.4717C19.9205 63.5033 25.2216 51.2677 33.6645 41.3122C42.1074 31.3566 53.3129 24.1283 65.8639 20.5412C78.4149 16.9541 91.7478 17.1694 104.177 21.1598C120.843 26.5108 134.701 38.2632 142.702 53.8319C150.703 69.4005 152.192 87.5099 146.841 104.176Z" fill="white"/>
</mask>
<g mask="url(#mask0_264_4871)">
<path d="M-3.27188 156.67L-3.14747 16.3722L181.084 16.5284L180.961 156.396L180.96 156.827L-3.27188 156.67ZM-2.48131 155.811L180.216 155.968L180.341 17.3715L-2.36006 17.2237L-2.48131 155.811Z" fill="#231E21"/>
<path d="M-2.88121 156.239L180.582 156.401L180.623 109.918L-2.84278 109.766L-2.88121 156.239Z" fill="#FFD802"/>
<path d="M-2.8047 63.2934L-2.84311 109.766L180.623 109.918L180.671 63.4484L-2.8047 63.2934Z" fill="#E5292B"/>
<path d="M180.698 16.9985L-2.77197 16.8384L-2.81253 63.3084L180.657 63.4685L180.698 16.9985Z" fill="#010202"/>
<g style="mix-blend-mode:overlay" opacity="0.3">
<path d="M138.821 56.2087C140.704 67.9295 139.76 79.9306 136.068 91.213C125.259 124.88 94.1857 144.984 66.6501 136.143C39.1146 127.302 25.5705 92.8423 36.3707 59.2036C39.9332 47.8805 46.1487 37.572 54.5 29.1363C44.1743 34.8869 35.7545 43.53 30.2761 54.0027C24.7978 64.4754 22.4998 76.3209 23.6649 88.0824C24.8299 99.8439 29.4072 111.008 36.8337 120.203C44.2602 129.397 54.2121 136.22 65.4653 139.833C76.7185 143.446 88.7824 143.692 100.173 140.539C111.564 137.386 121.785 130.973 129.579 122.088C137.373 113.203 142.4 102.233 144.042 90.5288C145.684 78.8244 143.869 66.8953 138.821 56.2087Z" fill="white"/>
</g>
<path opacity="0.5" d="M140.547 73.3363C134.568 91.96 108.167 100.13 81.5641 91.5892C54.9616 83.048 38.2414 61.0644 44.23 42.4122C50.2186 23.76 76.6109 15.6182 103.213 24.1593C129.816 32.7005 146.527 54.7127 140.547 73.3363Z" fill="url(#paint0_linear_264_4871)"/>
<g style="mix-blend-mode:overlay">
<path d="M25.0854 64.1921C27.5505 56.4943 31.0927 49.1841 35.6066 42.479C25.1737 55.2579 19.9564 71.508 21.0005 87.9718C21.2334 79.8922 22.6086 71.8863 25.0854 64.1921Z" fill="white"/>
<path d="M144.017 101.589C146.491 93.8933 147.863 85.8863 148.092 77.8062C149.136 94.2699 143.919 110.52 133.486 123.299C138.003 116.595 141.548 109.286 144.017 101.589Z" fill="white"/>
<path d="M65.1392 142.747C52.8115 138.829 41.9697 131.249 34.0576 121.016C26.1454 110.783 21.5382 98.3822 20.8496 85.4653C21.1553 98.5884 25.5415 111.29 33.3986 121.806C41.2557 132.321 52.1935 140.128 64.6917 144.14C77.1899 148.153 90.6278 148.173 103.138 144.196C115.648 140.22 126.608 132.446 134.496 121.953C126.417 132.055 115.452 139.456 103.062 143.171C90.6713 146.885 77.4433 146.737 65.1392 142.747Z" fill="white"/>
<path d="M103.461 23.3876C115.789 27.3052 126.63 34.8852 134.543 45.1183C142.455 55.3514 147.062 67.752 147.751 80.6688C147.445 67.5458 143.059 54.8439 135.202 44.3286C127.345 33.8132 116.407 26.0066 103.909 21.9939C91.4103 17.9812 77.9724 17.9615 65.4626 21.9378C52.9527 25.914 41.9922 33.6886 34.1045 44.181C42.1836 34.0792 53.1483 26.6782 65.5386 22.9635C77.929 19.2488 91.1569 19.3968 103.461 23.3876Z" fill="white"/>
</g>
</g>
<defs>
<linearGradient id="paint0_linear_264_4871" x1="81.6129" y1="91.1427" x2="98.2812" y2="39.6848" gradientUnits="userSpaceOnUse">
<stop stop-color="white" stop-opacity="0"/>
<stop offset="1" stop-color="white"/>
</linearGradient>
</defs>
</svg>
