<svg width="800" height="800" viewBox="0 0 800 800" fill="none" xmlns="http://www.w3.org/2000/svg">
<path d="M359.875 550L242.375 432.5C242.375 432.5 397 67.625 709.625 87.5C709.625 87.5 753.125 376.5 359.875 550Z" stroke="#C02026" stroke-width="40"/>
<path d="M700 210.25C671.55 205.693 645.286 192.211 625 171.75C604.142 150.951 590.514 124.003 586.125 94.875" stroke="#C02026" stroke-width="40"/>
<path d="M529 336.5C566.831 336.5 597.5 305.832 597.5 268C597.5 230.169 566.831 199.5 529 199.5C491.168 199.5 460.5 230.169 460.5 268C460.5 305.832 491.168 336.5 529 336.5Z" stroke="#C02026" stroke-width="40"/>
<path d="M382.625 539.5L375 598C374.939 598.519 375.014 599.046 375.219 599.527C375.424 600.008 375.751 600.428 376.168 600.744C376.585 601.06 377.077 601.261 377.596 601.328C378.114 601.395 378.642 601.325 379.125 601.125L479.125 557.75C483.221 555.87 486.822 553.06 489.643 549.545C492.464 546.03 494.426 541.906 495.375 537.5L510.625 464.625" stroke="#C02026" stroke-width="40"/>
<path d="M250 416.125L191.375 423.625C190.871 423.689 190.359 423.619 189.891 423.421C189.423 423.223 189.016 422.905 188.711 422.498C188.406 422.092 188.214 421.612 188.155 421.107C188.096 420.602 188.172 420.091 188.375 419.625L231.625 320.25C233.496 315.969 236.369 312.201 240.002 309.264C243.636 306.327 247.922 304.307 252.5 303.375L325.25 288.125" stroke="#C02026" stroke-width="40"/>
<path d="M268.625 458.5C186.75 484.75 182.625 614.375 182.625 614.375C182.625 614.375 308.625 615.75 340 529.875" stroke="#C02026" stroke-width="40"/>
<path d="M136 660.25L89 707.375" stroke="#C02026" stroke-width="40" stroke-linecap="round"/>
<path d="M132.5 570.375L92.625 610.125" stroke="#C02026" stroke-width="40" stroke-linecap="round"/>
<path d="M224.25 663.875L184.5 703.75" stroke="#C02026" stroke-width="40" stroke-linecap="round"/>
</svg>
