<svg  viewBox="0 0 176 176" fill="none" xmlns="http://www.w3.org/2000/svg">
<mask id="mask0_264_4901" style="mask-type:luminance" maskUnits="userSpaceOnUse" x="21" y="21" >
<path d="M147.55 116.24C141.951 128.031 132.981 137.898 121.774 144.592C110.568 151.285 97.6278 154.506 84.5909 153.845C71.5541 153.185 59.0058 148.673 48.533 140.881C38.0601 133.089 30.1331 122.367 25.7543 110.07C21.3754 97.7724 20.7415 84.4529 23.9326 71.7954C27.1237 59.1379 33.9965 47.7109 43.6819 38.9594C53.3673 30.208 65.4304 24.5251 78.3455 22.6295C91.2607 20.7338 104.448 22.7106 116.24 28.3097C132.052 35.8179 144.234 49.3 150.106 65.79C155.978 82.2801 155.058 100.427 147.55 116.24Z" fill="white"/>
</mask>
<g mask="url(#mask0_264_4901)">
<path d="M10.6872 162.175L10.6565 17.6953L166.962 17.6343L167.015 161.693L167.015 162.135L10.6872 162.175ZM11.3273 161.316L166.331 161.268L166.282 18.507L11.2778 18.5549L11.3273 161.316Z" fill="#231E21"/>
<path d="M62.8351 18.1372L10.9551 18.1553L11.0052 161.755L62.8852 161.737L62.8351 18.1372Z" fill="#20345E"/>
<path d="M114.719 18.1044L62.8394 18.1226L62.8895 161.723L114.769 161.704L114.719 18.1044Z" fill="white"/>
<path d="M194.688 18.057L114.729 18.085L114.779 161.685L194.739 161.657L194.688 18.057Z" fill="#E84338"/>
<g style="mix-blend-mode:overlay" opacity="0.3">
<path d="M145.944 67.6324C146.261 79.4993 143.738 91.2702 138.587 101.965C123.419 133.907 89.9604 149.724 63.836 137.32C37.7115 124.915 28.844 88.9662 43.9982 57.0514C49.027 46.2988 56.5513 36.903 65.9449 29.6459C54.9493 33.9803 45.4604 41.434 38.6451 51.0901C31.8298 60.7463 27.9853 72.1838 27.5846 83.9961C27.1839 95.8083 30.2445 107.48 36.3897 117.576C42.5349 127.672 51.4969 135.751 62.1735 140.821C72.85 145.89 84.7755 147.729 96.4832 146.11C108.191 144.492 119.17 139.487 128.071 131.71C136.971 123.934 143.405 113.726 146.58 102.342C149.756 90.9572 149.535 78.8928 145.944 67.6324Z" fill="white"/>
</g>
<path opacity="0.5" d="M145.391 84.8382C137.001 102.507 109.75 107.114 84.5113 95.1297C59.2721 83.1453 45.6063 59.1434 54.0092 41.4471C62.412 23.7507 89.6493 19.1711 114.888 31.1555C140.128 43.14 153.781 67.1689 145.391 84.8382Z" fill="url(#paint0_linear_264_4901)"/>
</g>
<defs>
<linearGradient id="paint0_linear_264_4901" x1="84.6187" y1="94.6936" x2="107.946" y2="45.8923" gradientUnits="userSpaceOnUse">
<stop stop-color="white" stop-opacity="0"/>
<stop offset="1" stop-color="white"/>
</linearGradient>
</defs>
</svg>
