<svg  viewBox="0 0 164 164" fill="none" xmlns="http://www.w3.org/2000/svg">
<mask id="mask0_264_2079" style="mask-type:luminance" maskUnits="userSpaceOnUse" x="15" y="15" >
<path d="M145.079 99.8274C141.481 112.375 134.243 123.574 124.28 132.009C114.317 140.443 102.077 145.733 89.1069 147.211C76.1372 148.689 63.0207 146.287 51.4158 140.31C39.811 134.334 30.2391 125.05 23.9106 113.633C17.5821 102.216 14.7813 89.1787 15.8622 76.17C16.9431 63.1613 21.8573 50.7652 29.9833 40.5494C38.1094 30.3336 49.0823 22.7568 61.5144 18.7773C73.9466 14.7977 87.2797 14.594 99.8276 18.1921C116.654 23.0169 130.874 34.3284 139.36 49.6379C147.847 64.9475 149.904 83.0012 145.079 99.8274Z" fill="white"/>
</mask>
<g mask="url(#mask0_264_2079)">
<path d="M-21.8593 152.545L-21.9507 15.0017L183.934 14.8971L184.013 152.011L184.018 152.428L-21.8593 152.545ZM-21.0123 151.696L183.156 151.588L183.089 15.7369L-21.0917 15.8514L-21.0123 151.696Z" fill="#231E21"/>
<path d="M183.482 15.3345L-21.5483 15.4419L-21.4768 152.132L183.553 152.025L183.482 15.3345Z" fill="#26356B"/>
<path d="M183.534 63.1667L101.524 63.2135L101.502 15.3639L60.4888 15.3798L60.5174 63.2418L-21.4897 63.279L-21.4711 104.283L60.5388 104.236L60.5632 152.076L101.57 152.047L101.542 104.217L183.552 104.17L183.534 63.1667Z" fill="white"/>
<path d="M183.574 136.311L2.00462 15.4104L-21.5211 15.4264L-21.5061 31.2641L159.876 152.018L183.589 152.003L183.574 136.311Z" fill="white"/>
<path d="M-21.4495 136.424L159.976 15.3305L183.512 15.3172L183.517 31.1521L2.26597 152.108L-21.4466 152.123L-21.4495 136.424Z" fill="white"/>
<path d="M183.542 71.6997L92.9896 71.7521L92.9595 15.3697L69.0409 15.3771L69.071 71.7596L-21.491 71.8092L-21.4766 95.7402L69.0852 95.6905L69.1153 152.073L93.0366 152.056L92.997 95.6708L183.549 95.6183L183.542 71.6997Z" fill="#CF172D"/>
<path d="M183.578 151.605L183.572 140.815L128.458 104.206L112.218 104.209L183.578 151.605Z" fill="#CF172D"/>
<path d="M183.512 15.3169L167.3 15.3289L101.52 59.1241L101.523 63.2133L111.636 63.2106L183.506 15.3361L183.512 15.3169Z" fill="#CF172D"/>
<path d="M49.8917 104.252L-21.441 151.739L-21.4468 152.122L-5.7863 152.108L60.5474 107.942L60.5385 104.236L49.8917 104.252Z" fill="#CF172D"/>
<path d="M-21.52 15.5308L-21.5138 26.3204L34.0697 63.252L50.3126 63.2386L-21.52 15.5308Z" fill="#CF172D"/>
<g style="mix-blend-mode:overlay" opacity="0.3">
<path d="M135.555 52.1354C137.806 63.7912 137.24 75.8161 133.904 87.2088C124.157 121.199 93.7311 142.269 65.9315 134.297C38.1318 126.326 23.512 92.3082 33.2502 58.3468C36.4553 46.9174 42.344 36.4188 50.4262 27.7249C40.2862 33.797 32.142 42.7003 26.9953 53.3399C21.8487 63.9795 19.9239 75.8914 21.4578 87.6105C22.9917 99.3295 27.9174 110.345 35.6291 119.301C43.3407 128.258 53.502 134.765 64.8631 138.023C76.2243 141.281 88.2899 141.147 99.576 137.638C110.862 134.129 120.876 127.398 128.387 118.272C135.898 109.147 140.579 98.0248 141.852 86.2746C143.126 74.5244 140.937 62.6582 135.555 52.1354Z" fill="white"/>
</g>
<g style="mix-blend-mode:overlay">
<path d="M22.1274 63.6876C24.3494 55.9161 27.6603 48.4982 31.9614 41.6547C21.935 54.755 17.2307 71.1609 18.7914 87.5838C18.7704 79.5009 19.8935 71.4557 22.1274 63.6876Z" fill="white"/>
<path d="M142.175 97.3306C144.405 89.5611 145.525 81.515 145.501 73.4316C147.062 89.8545 142.357 106.26 132.331 119.361C136.635 112.519 139.949 105.102 142.175 97.3306Z" fill="white"/>
</g>
</g>
</svg>
