<svg  viewBox="0 0 170 170" fill="none" xmlns="http://www.w3.org/2000/svg">
<mask id="mask0_264_4309" style="mask-type:luminance" maskUnits="userSpaceOnUse" x="18" y="18" >
<path d="M146.613 107.166C142.148 119.433 134.146 130.1 123.619 137.818C113.092 145.537 100.513 149.961 87.4718 150.53C74.4306 151.1 61.5135 147.789 50.3539 141.017C39.1942 134.245 30.2933 124.316 24.7766 112.486C19.2599 100.655 17.3753 87.4546 19.361 74.5529C21.3468 61.6513 27.1137 49.6282 35.9326 40.0041C44.7515 30.38 56.2261 23.5872 68.9056 20.4845C81.5851 17.3819 94.8999 18.1088 107.166 22.5733C123.615 28.5602 137.012 40.836 144.409 56.7003C151.807 72.5646 152.599 90.7177 146.613 107.166Z" fill="white"/>
<path d="M143.89 104.473C146.657 96.878 148.335 88.9296 148.875 80.8643C149.286 97.356 143.449 113.394 132.533 125.763C137.304 119.237 141.128 112.07 143.89 104.473Z" fill="white"/>
<path d="M106.366 24.7726C118.534 29.1606 129.077 37.1512 136.59 47.6804C144.104 58.2097 148.232 70.778 148.424 83.7118C148.622 70.5867 144.727 57.7258 137.279 46.9166C129.831 36.1073 119.201 27.8867 106.866 23.3971C94.5315 18.9075 81.1043 18.3721 68.451 21.8652C55.7978 25.3583 44.5469 32.7064 36.2622 42.8883C44.7231 33.104 55.9639 26.1294 68.4877 22.8931C81.0114 19.6568 94.224 20.3124 106.366 24.7726Z" fill="white"/>
</mask>
<g mask="url(#mask0_264_4309)">
<path d="M18.5812 158.45L18.905 16.6917L151.693 16.9854L151.34 158.297L151.341 158.733L18.5812 158.45ZM19.1403 157.557L150.844 157.818L151.134 17.8464L19.4506 17.5607L19.1403 157.557Z" fill="#231E21"/>
<path d="M63.2241 17.2549L18.688 17.1538L18.3683 158.033L62.9044 158.134L63.2241 17.2549Z" fill="#078E46"/>
<path d="M107.288 17.348L63.2178 17.248L62.8981 158.128L106.968 158.228L107.288 17.348Z" fill="white"/>
<path d="M151.344 17.0742L107.272 16.9858L106.99 157.809L151.062 157.898L151.344 17.0742Z" fill="#D3242C"/>
<g style="mix-blend-mode:overlay" opacity="0.3">
<path d="M140.44 58.9263C141.872 70.7107 140.468 82.6667 136.346 93.7991C124.252 127.027 92.4298 145.922 65.2539 136.031C38.078 126.14 25.8667 91.1855 37.9503 57.9861C41.9448 46.8081 48.5515 36.7459 57.2205 28.637C46.6816 33.9869 37.9362 42.3004 32.0599 52.5551C26.1836 62.8098 23.4326 74.5584 24.1453 86.3559C24.858 98.1534 29.0033 109.485 36.0714 118.958C43.1394 128.431 52.822 135.631 63.9283 139.673C75.0345 143.716 87.0801 144.424 98.5835 141.711C110.087 138.997 120.546 132.981 128.676 124.402C136.805 115.823 142.249 105.054 144.339 93.4215C146.43 81.7888 145.074 69.7988 140.44 58.9263Z" fill="white"/>
</g>
<path opacity="0.5" d="M141.507 76.1076C134.818 94.488 108.122 101.639 81.8669 92.0828C55.6118 82.5267 39.748 59.9174 46.4482 41.5089C53.1483 23.1003 79.8337 15.9777 106.089 25.5337C132.344 35.0898 148.197 57.7272 141.507 76.1076Z" fill="url(#paint0_linear_264_4309)"/>
</g>
<defs>
<linearGradient id="paint0_linear_264_4309" x1="81.9328" y1="91.6385" x2="100.564" y2="40.8584" gradientUnits="userSpaceOnUse">
<stop stop-color="white" stop-opacity="0"/>
<stop offset="1" stop-color="white"/>
</linearGradient>
</defs>
</svg>
