<svg width="207" height="127" viewBox="0 0 207 127" fill="none" xmlns="http://www.w3.org/2000/svg">
<path d="M199.5 17.5H205.5C201.333 42.3333 192.3 95.7 189.5 110.5C187.587 120.613 181.674 124.454 176.419 125.5M189.5 7H200.5L179 113.5C174.6 119.1 171.167 115.833 170 113.5L168.5 109.5M176.419 125.5C173.983 125.985 171.689 125.869 170 125.5C122.667 125.5 24.9999 125.5 12.9999 125.5C0.999918 125.5 0.666584 115.5 1.99992 110.5L25.4999 0.5L190.5 1C184.333 31.8333 171.3 96.7 168.5 109.5M176.419 125.5C172.612 125.5 165.7 122.3 168.5 109.5M84.5 59.5H162M82 68.5H159.5M79.5 78.5H158M78 88.5H156.5M21 97.5H154M20 108H154M33.5 59.5C36.3 59.5 58.6667 59.5 69.5 59.5C70.1667 59.5 71.4 60.2 71 63C70.6 65.8 67.8333 79.1667 66.5 85.5C66.5 86.5 65.8 88.5 63 88.5C60.2 88.5 39.1667 88.5 29 88.5C27.6667 88.5 25.1 88 25.5 86C25.9 84 29 69.4008 30.5 62.3513C30.6545 61.0297 31.3793 59.5 33.5 59.5Z" stroke="#b0b0b096"/>
<path d="M49.766 84.5744H43.1277L46.4288 78.802L49.766 84.5744Z" stroke="#b0b0b096"/>
<path d="M54.3659 84.5564H38.5459L46.4289 70.8649L54.3659 84.5564Z" stroke="#b0b0b096"/>
<path d="M56.4944 84.5384H36.363L46.4287 67.1129L56.4944 84.5384Z" stroke="#b0b0b096"/>
<path d="M58.9116 84.5384H34L46.4648 63L58.9116 84.5384Z" stroke="#b0b0b096"/>
<path d="M69.7869 15.9091L64.9574 45H60.2699L49.858 25.1847H49.6307L46.321 45H41.0511L45.8807 15.9091H50.5966L60.9943 35.7386H61.2642L64.5455 15.9091H69.7869ZM70.6996 45L75.5291 15.9091H94.4496L93.7109 20.3267H80.0604L78.7536 28.2244H91.424L90.6854 32.642H78.0149L76.7081 40.5824H90.4723L89.7337 45H70.6996ZM101.119 45L97.7379 15.9091H103.406L105.11 37.2869H105.38L114.513 15.9091H119.67L121.744 37.3011H121.999L130.778 15.9091H136.445L123.406 45H118.207L115.792 24.5881H115.565L106.317 45H101.119ZM154.35 24.0483C154.388 22.732 153.986 21.7235 153.143 21.0227C152.309 20.322 151.112 19.9716 149.549 19.9716C148.451 19.9716 147.48 20.1373 146.637 20.4688C145.804 20.7907 145.131 21.2405 144.62 21.8182C144.109 22.3864 143.791 23.035 143.668 23.7642C143.564 24.3608 143.616 24.8816 143.825 25.3267C144.033 25.7718 144.35 26.1506 144.776 26.4631C145.212 26.7756 145.704 27.036 146.254 27.2443C146.812 27.4527 147.38 27.6278 147.958 27.7699L150.572 28.4517C151.613 28.7074 152.608 29.053 153.555 29.4886C154.502 29.9148 155.321 30.464 156.012 31.1364C156.713 31.7992 157.224 32.5994 157.546 33.5369C157.868 34.4744 157.92 35.5729 157.702 36.8324C157.418 38.5369 156.732 40.0379 155.643 41.3352C154.563 42.6231 153.143 43.6316 151.381 44.3608C149.629 45.0805 147.589 45.4403 145.259 45.4403C143.005 45.4403 141.102 45.09 139.549 44.3892C137.996 43.679 136.86 42.6515 136.14 41.3068C135.43 39.9621 135.202 38.3286 135.458 36.4062H140.643C140.539 37.4195 140.704 38.2623 141.14 38.9347C141.585 39.607 142.224 40.1089 143.058 40.4403C143.891 40.7718 144.857 40.9375 145.955 40.9375C147.101 40.9375 148.138 40.767 149.066 40.4261C149.994 40.0758 150.752 39.5928 151.339 38.9773C151.935 38.3523 152.3 37.6231 152.433 36.7898C152.565 36.0417 152.456 35.4167 152.106 34.9148C151.755 34.4129 151.211 33.9962 150.472 33.6648C149.743 33.3239 148.872 33.0208 147.859 32.7557L144.705 31.9034C142.423 31.2784 140.69 30.3409 139.506 29.0909C138.332 27.8409 137.915 26.1742 138.256 24.0909C138.54 22.3674 139.255 20.8665 140.401 19.5881C141.547 18.3002 142.982 17.3011 144.705 16.5909C146.429 15.8712 148.313 15.5114 150.359 15.5114C152.423 15.5114 154.17 15.8712 155.6 16.5909C157.04 17.3106 158.091 18.3144 158.754 19.6023C159.426 20.8807 159.648 22.3627 159.421 24.0483H154.35Z" fill="#b0b0b096"/>
</svg>
