<svg  viewBox="0 0 175 175" fill="none" xmlns="http://www.w3.org/2000/svg">
<mask id="mask0_264_4930" style="mask-type:luminance" maskUnits="userSpaceOnUse" x="21" y="21" >
<path d="M147.433 113.983C142.123 125.908 133.397 135.991 122.357 142.957C111.318 149.922 98.4602 153.458 85.4111 153.116C72.3621 152.774 59.7073 148.571 49.0472 141.037C38.3872 133.503 30.2005 122.977 25.5225 110.791C20.8445 98.6044 19.8854 85.3043 22.7663 72.5726C25.6472 59.8409 32.2387 48.2494 41.7074 39.2639C51.1761 30.2785 63.0967 24.3026 75.9617 22.092C88.8268 19.8813 102.058 21.5353 113.983 26.8446C129.974 33.9643 142.482 47.1447 148.755 63.4864C155.028 79.828 154.552 97.9923 147.433 113.983Z" fill="white"/>
</mask>
<g mask="url(#mask0_264_4930)">
<path d="M1.69878 157.708L0.195139 19.5193L164.013 17.7359L165.507 155.504L165.517 155.925L1.69878 157.708ZM2.37146 156.836L164.812 155.074L163.326 18.5904L0.849504 20.336L2.37146 156.836Z" fill="#231E21"/>
<path d="M2.03342 157.277L165.163 155.516L164.678 109.719L1.54455 111.49L2.03342 157.277Z" fill="#204183"/>
<path d="M164.165 63.9661L1.03418 65.7314L1.52956 111.509L164.66 109.743L164.165 63.9661Z" fill="white"/>
<path d="M163.53 9.1098L0.409668 10.875L1.00362 65.7618L164.124 63.9966L163.53 9.1098Z" fill="#A21B26"/>
<path opacity="0.5" d="M144.507 82.644C136.551 100.513 109.422 105.784 83.8972 94.4199C58.3727 83.0557 44.1246 59.3949 52.0926 41.4985C60.0606 23.6022 87.1778 18.3584 112.702 29.7226C138.227 41.0869 152.463 64.7751 144.507 82.644Z" fill="url(#paint0_linear_264_4930)"/>
<g style="mix-blend-mode:overlay" opacity="0.3">
<path d="M144.64 65.43C145.246 77.2857 143.012 89.1147 138.123 99.9323C123.741 132.235 90.6785 148.865 64.2588 137.102C37.839 125.34 28.0958 89.6185 42.4658 57.3429C47.2303 46.4707 54.5228 36.8939 63.7363 29.4094C52.85 34.0112 43.5459 41.6944 36.9686 51.5142C30.3913 61.334 26.8274 72.8621 26.7154 84.6805C26.6034 96.499 29.9482 108.093 36.3383 118.035C42.7283 127.978 51.8851 135.836 62.6823 140.643C73.4795 145.451 85.4463 146.997 97.111 145.093C108.776 143.189 119.629 137.917 128.337 129.925C137.045 121.934 143.228 111.572 146.124 100.113C149.02 88.6547 148.505 76.5994 144.64 65.43Z" fill="white"/>
</g>
<g style="mix-blend-mode:overlay">
<path d="M30.7071 61.0833C33.9891 53.6967 38.3001 46.8118 43.5118 40.6335C31.7598 52.2109 24.818 67.8025 24.0779 84.2827C25.182 76.2756 27.4139 68.465 30.7071 61.0833Z" fill="white"/>
<path d="M144.904 111.106C148.194 103.723 150.423 95.9109 151.524 87.9028C150.784 104.383 143.842 119.975 132.09 131.552C137.305 125.375 141.619 118.492 144.904 111.106Z" fill="white"/>
<path d="M62.0429 143.504C50.2104 138.278 40.2507 129.572 33.49 118.544C26.7292 107.516 23.4883 94.6906 24.1987 81.7749C23.0854 94.8542 26.0741 107.955 32.7496 119.258C39.4251 130.56 49.4558 139.502 61.4475 144.842C73.4393 150.181 86.7964 151.651 99.6626 149.049C112.529 146.448 124.265 139.902 133.239 130.323C124.117 139.493 112.417 145.667 99.6977 148.022C86.9787 150.376 73.8441 148.801 62.0429 143.504Z" fill="white"/>
</g>
</g>
<defs>
<linearGradient id="paint0_linear_264_4930" x1="83.9939" y1="93.9814" x2="106.122" y2="44.6246" gradientUnits="userSpaceOnUse">
<stop stop-color="white" stop-opacity="0"/>
<stop offset="1" stop-color="white"/>
</linearGradient>
</defs>
</svg>
