<svg width="800" height="800" viewBox="0 0 800 800" fill="none" xmlns="http://www.w3.org/2000/svg">
<path fill-rule="evenodd" clip-rule="evenodd" d="M157.257 103.063C198.129 60.032 265.737 68.0944 299.523 115.88L341.557 175.33C368.58 213.552 366.297 266.691 334.047 300.647L325.883 309.24C325.861 309.299 325.837 309.363 325.812 309.433C325.381 310.645 324.29 314.504 325.363 321.83C327.588 337.013 339.31 367.87 386.9 417.973C434.637 468.23 463.593 480.077 477.01 482.257C482.8 483.197 485.827 482.38 486.793 482.04L500.413 467.7C529.54 437.033 574.95 430.993 611.567 452.07L675.25 488.723C729.68 520.053 742.35 596.693 698.85 642.49L651.5 692.343C636.72 707.903 616.567 721.183 591.667 723.64C530.87 729.643 390.033 721.827 242.387 566.383C104.615 421.333 78.4421 295.171 75.1338 233.53C73.4991 203.075 87.0748 176.952 104.937 158.147L157.257 103.063ZM258.697 144.746C241.618 120.591 210.937 119.15 193.509 137.498L141.189 192.581C130.143 204.211 124.347 217.54 125.062 230.851C127.763 281.178 149.436 395.92 278.64 531.947C414.113 674.577 538.92 678.603 586.753 673.883C596.213 672.95 605.943 667.7 615.247 657.91L662.597 608.057C683.023 586.55 677.67 547.807 650.307 532.06L586.623 495.403C569.533 485.567 549.513 488.607 536.667 502.133L521.483 518.117L503.913 501.427C521.483 518.117 521.46 518.14 521.44 518.167L521.39 518.213L521.293 518.317L521.08 518.533L520.603 519.003C520.26 519.337 519.863 519.7 519.417 520.093C518.52 520.88 517.41 521.777 516.08 522.72C513.407 524.613 509.85 526.697 505.353 528.47C496.153 532.1 484.003 534.047 468.997 531.61C439.743 526.86 401.407 505.85 350.647 452.407C299.734 398.807 280.249 358.817 275.892 329.078C273.674 313.942 275.449 301.823 278.705 292.67C280.307 288.169 282.198 284.581 283.942 281.855C284.812 280.496 285.641 279.358 286.373 278.433C286.74 277.97 287.082 277.559 287.394 277.201L287.838 276.701L288.042 276.48L288.138 276.377L288.185 276.327C288.208 276.302 288.231 276.278 305.954 293.111L288.232 276.278L297.792 266.212C312.643 250.577 314.801 224.097 300.73 204.195L258.697 144.746Z" fill="#ADADAD"/>
<path d="M441.983 62.661C444.19 49.0313 457.073 39.7857 470.703 41.992C471.547 42.1537 474.263 42.661 475.683 42.9777C478.53 43.6113 482.497 44.5863 487.443 46.0273C497.337 48.9087 511.157 53.6557 527.743 61.26C560.953 76.4853 605.147 103.119 651.007 148.979C696.867 194.839 723.5 239.032 738.723 272.242C746.33 288.829 751.077 302.649 753.957 312.542C755.397 317.489 756.373 321.456 757.007 324.3C757.323 325.723 757.557 326.865 757.717 327.708L757.91 328.748C760.113 342.377 750.953 355.797 737.323 358.003C723.733 360.203 710.93 351 708.67 337.437C708.6 337.07 708.407 336.093 708.203 335.17C707.79 333.323 707.08 330.396 705.953 326.524C703.697 318.78 699.78 307.269 693.273 293.079C680.28 264.736 656.913 225.596 615.65 184.334C574.39 143.072 535.25 119.706 506.907 106.711C492.717 100.206 481.207 96.2883 473.46 94.0323C469.59 92.9047 464.723 91.7877 462.877 91.3767C449.31 89.1157 439.783 76.2517 441.983 62.661Z" fill="#ADADAD"/>
<path fill-rule="evenodd" clip-rule="evenodd" d="M449.537 177.644C453.33 164.368 467.167 156.68 480.443 160.474L473.573 184.512C480.443 160.474 480.43 160.47 480.443 160.474L480.49 160.487L480.54 160.502L480.653 160.535L480.91 160.612L481.57 160.817C482.073 160.978 482.7 161.187 483.45 161.453C484.947 161.984 486.923 162.739 489.35 163.78C494.207 165.861 500.843 169.075 508.993 173.898C525.31 183.555 547.583 199.594 573.747 225.76C599.913 251.925 615.953 274.198 625.61 290.514C630.433 298.664 633.647 305.3 635.727 310.156C636.767 312.583 637.523 314.561 638.053 316.058C638.32 316.807 638.53 317.434 638.69 317.937L638.897 318.596L638.973 318.855L639.007 318.966L639.02 319.017C639.023 319.029 639.033 319.065 614.997 325.933L639.033 319.065C642.827 332.341 635.14 346.177 621.863 349.97C608.7 353.733 594.987 346.207 591.057 333.138L590.933 332.779C590.757 332.278 590.387 331.292 589.77 329.852C588.537 326.974 586.3 322.266 582.58 315.98C575.147 303.422 561.723 284.447 538.393 261.115C515.06 237.783 496.087 224.36 483.527 216.927C477.24 213.207 472.533 210.97 469.657 209.737C468.217 209.12 467.23 208.752 466.73 208.574L466.37 208.451C453.3 204.522 445.777 190.807 449.537 177.644Z" fill="#ADADAD"/>
</svg>
