<svg width="800" height="800" viewBox="0 0 800 800" fill="none" xmlns="http://www.w3.org/2000/svg">
<path fill-rule="evenodd" clip-rule="evenodd" d="M166.667 316.667C166.667 203.124 266.998 100 400 100C533.003 100 633.333 203.124 633.333 316.667C633.333 388.163 589.59 468.02 532.02 542.037C486.523 600.533 435.91 651.097 400 686.48C364.09 651.097 313.476 600.533 267.978 542.037C210.41 468.02 166.667 388.163 166.667 316.667ZM400 33.3334C233.002 33.3334 100 163.543 100 316.667C100 411.837 156.257 506.98 215.355 582.963C266.496 648.717 323.98 705.247 359.91 740.577C366.103 746.67 371.66 752.133 376.43 756.903C382.68 763.153 391.16 766.667 400 766.667C408.84 766.667 417.32 763.153 423.57 756.903C428.34 752.133 433.897 746.67 440.09 740.58C476.017 705.247 533.503 648.717 584.647 582.963C643.743 506.98 700 411.837 700 316.667C700 163.543 566.997 33.3334 400 33.3334ZM400 416.667C446.023 416.667 483.333 379.357 483.333 333.333C483.333 287.31 446.023 250 400 250C353.977 250 316.667 287.31 316.667 333.333C316.667 379.357 353.977 416.667 400 416.667Z" fill="#ADADAD"/>
</svg>
