<svg width="800" height="800" viewBox="0 0 800 800" fill="none" xmlns="http://www.w3.org/2000/svg">
<g clip-path="url(#clip0_41_15)">
<path d="M152.767 577.367C118.433 540.9 100 500 100 433.7C100 317.033 181.9 212.467 301 160.767L330.767 206.7C219.6 266.833 197.867 344.867 189.2 394.067C207.1 384.8 230.533 381.567 253.5 383.7C313.633 389.267 361.033 438.633 361.033 500C361.033 530.942 348.742 560.617 326.862 582.496C304.983 604.375 275.309 616.667 244.367 616.667C208.6 616.667 174.4 600.333 152.767 577.367ZM486.1 577.367C451.767 540.9 433.333 500 433.333 433.7C433.333 317.033 515.233 212.467 634.333 160.767L664.1 206.7C552.933 266.833 531.2 344.867 522.533 394.067C540.433 384.8 563.867 381.567 586.833 383.7C646.967 389.267 694.367 438.633 694.367 500C694.367 530.942 682.075 560.617 660.196 582.496C638.317 604.375 608.642 616.667 577.7 616.667C541.933 616.667 507.733 600.333 486.1 577.367Z" fill="#C02026"/>
</g>
<defs>
<clipPath id="clip0_41_15">
<rect width="800" height="800" fill="white"/>
</clipPath>
</defs>
</svg>
