<svg  viewBox="0 0 176 176" fill="none" xmlns="http://www.w3.org/2000/svg">
<mask id="mask0_264_4988" style="mask-type:luminance" maskUnits="userSpaceOnUse" x="21" y="21" >
<path d="M147.51 115.281C142.035 127.131 133.169 137.091 122.033 143.901C110.897 150.712 97.9915 154.068 84.9484 153.544C71.9054 153.02 59.3106 148.64 48.7567 140.958C38.2029 133.277 30.164 122.638 25.6566 110.387C21.1492 98.1362 20.3759 84.824 23.4342 72.1338C26.4926 59.4436 33.2453 47.9452 42.8386 39.0928C52.4319 30.2404 64.4347 24.4315 77.3293 22.4008C90.224 20.37 103.431 22.2085 115.281 27.6838C131.171 35.0261 143.494 48.3799 149.538 64.8075C155.582 81.2352 154.853 99.391 147.51 115.281Z" fill="white"/>
</mask>
<g mask="url(#mask0_264_4988)">
<path d="M13.8714 159.945L13.8744 14.8446L156.195 14.8079L156.201 159.461L156.196 159.899L13.8714 159.945ZM14.4655 159.041L155.606 159.031L155.592 15.7302L14.4523 15.7395L14.4655 159.041Z" fill="#231E21"/>
<path d="M14.1653 15.2878L14.1711 159.511L61.4102 159.505L61.4001 15.2908L14.1653 15.2878Z" fill="#2E539F"/>
<path d="M108.604 15.3491L61.3643 15.3491L61.3643 159.559L108.604 159.559L108.604 15.3491Z" fill="#FFE513"/>
<path d="M155.874 15.3042L108.634 15.3042L108.634 159.514L155.874 159.514L155.874 15.3042Z" fill="#E62A37"/>
<g style="mix-blend-mode:overlay" opacity="0.3">
<path d="M145.396 66.6932C145.836 78.5561 143.437 90.3528 138.398 101.101C123.566 133.2 90.2745 149.367 64.0216 137.236C37.7687 125.106 28.5252 89.2521 43.3444 57.1803C48.2603 46.3757 55.6858 36.9016 65.0029 29.5465C54.0533 33.9959 44.6429 41.5484 37.9291 51.2754C31.2153 61.0024 27.4909 72.4796 27.2139 84.2954C26.9369 96.1111 30.1195 107.75 36.3701 117.781C42.6207 127.812 51.6668 135.797 62.3958 140.755C73.1249 145.712 85.069 147.426 96.7591 145.685C108.449 143.944 119.375 138.824 128.194 130.955C137.013 123.086 143.339 112.811 146.395 101.394C149.451 89.9768 149.104 77.9154 145.396 66.6932Z" fill="white"/>
</g>
<g style="mix-blend-mode:overlay">
<path d="M31.5349 60.7569C34.9198 53.4169 39.3265 46.5928 44.6239 40.4878C32.7114 51.9 25.5526 67.3932 24.5825 83.8615C25.7983 75.8705 28.139 68.0918 31.5349 60.7569Z" fill="white"/>
<path d="M145.022 112.369C148.415 105.032 150.753 97.2522 151.965 89.2603C150.995 105.729 143.836 121.222 131.924 132.634C137.224 126.531 141.634 119.708 145.022 112.369Z" fill="white"/>
<path d="M61.7164 143.607C49.9581 138.217 40.1209 129.372 33.5148 118.251C26.9087 107.13 23.8471 94.26 24.7378 81.3555C23.4419 94.4179 26.2474 107.56 32.7645 118.954C39.2815 130.349 49.1864 139.43 61.1024 144.936C73.0184 150.442 86.3538 152.099 99.255 149.677C112.156 147.255 123.982 140.874 133.09 131.421C123.84 140.463 112.055 146.473 99.3045 148.65C86.5538 150.827 73.4425 149.068 61.7164 143.607Z" fill="white"/>
<path d="M114.299 29.808C126.057 35.1987 135.895 44.0435 142.501 55.1646C149.107 66.2857 152.168 79.1553 151.278 92.0598C152.574 78.9973 149.768 65.8556 143.251 54.461C136.734 43.0665 126.829 33.9852 114.913 28.4792C102.997 22.9732 89.6616 21.3161 76.7604 23.7381C63.8592 26.1602 52.033 32.5411 42.9253 41.994C52.1753 32.952 63.9602 26.9425 76.7109 24.7655C89.4616 22.5885 102.573 24.3474 114.299 29.808Z" fill="white"/>
</g>
</g>
</svg>
