<svg width="800" height="800" viewBox="0 0 800 800" fill="none" xmlns="http://www.w3.org/2000/svg">
<path d="M161.375 397.5V326.25C161.375 262.963 186.516 202.268 231.267 157.517C276.018 112.766 336.713 87.625 400 87.625C463.287 87.625 523.982 112.766 568.733 157.517C613.484 202.268 638.625 262.963 638.625 326.25V397.5" stroke="#C02026" stroke-width="40" stroke-linecap="round"/>
<path d="M150.75 397.5H209.5V564.75H150.75C140.804 564.75 131.266 560.799 124.233 553.766C117.201 546.734 113.25 537.196 113.25 527.25V435C113.25 425.054 117.201 415.516 124.233 408.484C131.266 401.451 140.804 397.5 150.75 397.5Z" stroke="#C02026" stroke-width="40" stroke-linecap="round"/>
<path d="M649.25 564.75H590.5V397.5H649.25C659.196 397.5 668.734 401.451 675.767 408.484C682.799 415.516 686.75 425.054 686.75 435V527.25C686.75 537.196 682.799 546.734 675.767 553.766C668.734 560.799 659.196 564.75 649.25 564.75Z" stroke="#C02026" stroke-width="40" stroke-linecap="round"/>
<path d="M646.25 569.5V632C646.25 645.261 640.982 657.979 631.605 667.355C622.229 676.732 609.511 682 596.25 682H457" stroke="#C02026" stroke-width="40" stroke-linecap="round"/>
<path d="M431.875 649H380.625C366.818 649 355.625 660.193 355.625 674V687.375C355.625 701.182 366.818 712.375 380.625 712.375H431.875C445.682 712.375 456.875 701.182 456.875 687.375V674C456.875 660.193 445.682 649 431.875 649Z" stroke="#C02026" stroke-width="40" stroke-linecap="round"/>
</svg>
