<svg width="164" height="164" viewBox="0 0 164 164" fill="none" xmlns="http://www.w3.org/2000/svg">
<mask id="mask0_264_6731" style="mask-type:luminance" maskUnits="userSpaceOnUse" x="15" y="15" width="133" height="133">
<path d="M145.079 99.8274C141.481 112.375 134.243 123.574 124.28 132.009C114.317 140.443 102.077 145.733 89.1069 147.211C76.1373 148.689 63.0207 146.287 51.4159 140.311C39.811 134.334 30.2391 125.05 23.9106 113.633C17.5821 102.216 14.7812 89.1788 15.8622 76.17C16.9431 63.1613 21.8573 50.7652 29.9834 40.5494C38.1094 30.3336 49.0823 22.7568 61.5145 18.7773C73.9466 14.7977 87.2797 14.594 99.8276 18.1921C116.654 23.0169 130.874 34.3284 139.36 49.638C147.847 64.9476 149.904 83.0012 145.079 99.8274Z" fill="white"/>
</mask>
<g mask="url(#mask0_264_6731)">
<path d="M23.158 125.36L18.9116 43.738L141.141 37.3725L145.377 118.742L145.388 118.995L23.158 125.36ZM23.6489 124.773L144.818 118.478L140.627 37.8596L19.4469 44.1932L23.6489 124.773Z" fill="#231E21"/>
<path d="M148 15L15 15L15 148L148 148L148 15Z" fill="#E1111B"/>
<path d="M80.1837 93.3202C78.1046 93.3721 76.0445 92.9134 74.1838 91.9843C72.3231 91.0552 70.7186 89.6841 69.5109 87.9909C68.3031 86.2978 67.5289 84.3343 67.2562 82.2726C66.9834 80.2108 67.2203 78.1136 67.9462 76.1646C68.672 74.2156 69.8647 72.4743 71.4198 71.0933C72.9748 69.7123 74.8447 68.7336 76.8658 68.2431C78.8869 67.7525 80.9974 67.7649 83.0125 68.2793C85.0276 68.7938 86.8859 69.7945 88.4245 71.1937C86.4188 68.4951 83.6093 66.5017 80.3995 65.5001C77.1898 64.4985 73.7452 64.5401 70.5607 65.6191C67.3762 66.6981 64.6156 68.7589 62.6758 71.5053C60.736 74.2517 59.7168 77.5423 59.7646 80.9043C59.8124 84.2663 60.9248 87.5266 62.9419 90.2168C64.9591 92.9069 67.7771 94.8883 70.991 95.8763C74.2049 96.8643 77.6493 96.808 80.8293 95.7155C84.0092 94.623 86.7609 92.5505 88.689 89.7959C86.3983 91.999 83.3612 93.2574 80.1837 93.3202Z" fill="white"/>
<path d="M94.0261 72.047L98.3821 77.4989L104.921 75.0464L101.074 80.8819L105.439 86.3365L98.7009 84.4771L94.863 90.3154L94.5441 83.3372L87.8028 81.4874L94.3449 79.0252L94.0261 72.047Z" fill="white"/>
<path opacity="0.5" d="M137.819 69.2005C132.428 88.0028 106.296 96.9984 79.4384 89.2971C52.5807 81.5958 35.1783 60.1482 40.5781 41.3171C45.9778 22.4859 72.1013 13.5192 98.959 21.2205C125.817 28.9219 143.211 50.3983 137.819 69.2005Z" fill="url(#paint0_linear_264_6731)"/>
<g style="mix-blend-mode:overlay">
<path d="M19.4855 80.7841C19.4794 72.7011 20.6174 64.658 22.8655 56.894C16.8384 72.2505 16.8384 89.3176 22.8655 104.674C20.6174 96.9101 19.4794 88.867 19.4855 80.7841Z" fill="white"/>
<path d="M144.156 80.0341C144.158 71.9507 143.017 63.9076 140.766 56.144C146.793 71.5005 146.793 88.5676 140.766 103.924C143.017 96.1605 144.158 88.1174 144.156 80.0341Z" fill="white"/>
<path d="M81.6356 143.334C68.7004 143.372 56.0605 139.47 45.3989 132.145C34.7372 124.821 26.5598 114.422 21.9556 102.334C26.2583 114.735 34.3174 125.488 45.0129 133.098C55.7084 140.709 68.509 144.798 81.6356 144.798C94.7622 144.798 107.563 140.709 118.258 133.098C128.954 125.488 137.013 114.735 141.316 102.334C136.711 114.422 128.534 124.821 117.872 132.145C107.211 139.47 94.5707 143.372 81.6356 143.334Z" fill="white"/>
<path d="M81.6356 17.9741C94.5707 17.9356 107.211 21.8384 117.872 29.163C128.534 36.4875 136.711 46.8861 141.316 58.9741C137.013 46.5727 128.954 35.8197 118.258 28.2096C107.563 20.5995 94.7622 16.5103 81.6356 16.5103C68.509 16.5103 55.7084 20.5995 45.0129 28.2096C34.3174 35.8197 26.2583 46.5727 21.9556 58.9741C26.5598 46.8861 34.7372 36.4875 45.3989 29.163C56.0605 21.8384 68.7004 17.9356 81.6356 17.9741Z" fill="white"/>
</g>
</g>
<defs>
<linearGradient id="paint0_linear_264_6731" x1="79.4731" y1="88.8494" x2="94.5169" y2="36.8933" gradientUnits="userSpaceOnUse">
<stop stop-color="white" stop-opacity="0"/>
<stop offset="1" stop-color="white"/>
</linearGradient>
</defs>
</svg>
