<svg  viewBox="0 0 164 164" fill="none" xmlns="http://www.w3.org/2000/svg">
<mask id="mask0_264_6731" style="mask-type:luminance" maskUnits="userSpaceOnUse" x="15" y="15" >
<path d="M145.079 99.8274C141.481 112.375 134.243 123.574 124.28 132.009C114.317 140.443 102.077 145.733 89.1069 147.211C76.1373 148.689 63.0207 146.287 51.4159 140.311C39.811 134.334 30.2391 125.05 23.9106 113.633C17.5821 102.216 14.7812 89.1788 15.8622 76.17C16.9431 63.1613 21.8573 50.7652 29.9834 40.5494C38.1094 30.3336 49.0823 22.7568 61.5145 18.7773C73.9466 14.7977 87.2797 14.594 99.8276 18.1921C116.654 23.0169 130.874 34.3284 139.36 49.638C147.847 64.9476 149.904 83.0012 145.079 99.8274Z" fill="white"/>
</mask>
<g mask="url(#mask0_264_6731)">
<path d="M23.158 125.36L18.9116 43.738L141.141 37.3725L145.377 118.742L145.388 118.995L23.158 125.36ZM23.6489 124.773L144.818 118.478L140.627 37.8596L19.4469 44.1932L23.6489 124.773Z" fill="#231E21"/>
<path d="M164.431 11.5918L-0.00878906 11.5918L-0.00878789 151.022L164.431 151.022L164.431 11.5918Z" fill="#E1111B"/>
<path d="M81.0771 61.0542C85.0927 60.843 89.0808 61.828 92.5363 63.8846C95.9919 65.9411 98.7595 68.9766 100.489 72.607C102.218 76.2373 102.832 80.299 102.252 84.2782C101.671 88.2573 99.9237 91.9748 97.2296 94.9601C94.5355 97.9454 91.0162 100.064 87.1173 101.048C83.2183 102.032 79.1151 101.838 75.3269 100.489C71.5388 99.1394 68.2361 96.6966 65.837 93.4695C63.4379 90.2424 62.0502 86.376 61.8496 82.3598C61.5812 76.9866 63.4546 71.7263 67.059 67.7324C70.6634 63.7384 75.7046 61.3368 81.0771 61.0542Z" fill="white"/>
<path d="M88.5637 93.7545C86.4877 93.8789 84.4128 93.4924 82.5208 92.6288C80.6289 91.7652 78.9775 90.4509 77.7114 88.801C76.4452 87.151 75.603 85.2158 75.2585 83.1648C74.9139 81.1138 75.0774 79.0096 75.7349 77.0365C76.3923 75.0634 77.5235 73.2815 79.0294 71.847C80.5353 70.4126 82.3699 69.3693 84.3726 68.8084C86.3753 68.2476 88.485 68.1864 90.5168 68.6302C92.5487 69.074 94.4407 70.0092 96.0272 71.3539C93.9286 68.7269 91.0512 66.8328 87.8085 65.9438C84.5658 65.0548 81.1247 65.2167 77.9798 66.4062C74.8348 67.5956 72.1479 69.7515 70.3052 72.5639C68.4624 75.3763 67.5586 78.7005 67.7237 82.0588C67.8889 85.4171 69.1143 88.6366 71.2241 91.2547C73.3339 93.8728 76.2193 95.7547 79.4658 96.6299C82.7122 97.5051 86.1526 97.3287 89.2924 96.1258C92.4323 94.923 95.11 92.7558 96.9408 89.9356C94.7284 92.2172 91.7371 93.5809 88.5637 93.7545Z" fill="#E1111B"/>
<path d="M85.3068 72.025L89.6628 77.4769L96.2021 75.0244L92.3546 80.86L96.7202 86.3146L89.9817 84.4552L86.1438 90.2934L85.8249 83.3152L79.0836 81.4654L85.6257 79.0032L85.3068 72.025Z" fill="#E1111B"/>
<path opacity="0.5" d="M137.819 69.2005C132.428 88.0028 106.296 96.9984 79.4384 89.2971C52.5807 81.5958 35.1783 60.1482 40.5781 41.3171C45.9778 22.4859 72.1013 13.5192 98.959 21.2205C125.817 28.9219 143.211 50.3983 137.819 69.2005Z" fill="url(#paint0_linear_264_6731)"/>
<g style="mix-blend-mode:overlay">
<path d="M19.4855 80.7841C19.4794 72.7011 20.6174 64.658 22.8655 56.894C16.8384 72.2505 16.8384 89.3176 22.8655 104.674C20.6174 96.9101 19.4794 88.867 19.4855 80.7841Z" fill="white"/>
<path d="M144.156 80.0341C144.158 71.9507 143.017 63.9076 140.766 56.144C146.793 71.5005 146.793 88.5676 140.766 103.924C143.017 96.1605 144.158 88.1174 144.156 80.0341Z" fill="white"/>
<path d="M81.6356 143.334C68.7004 143.372 56.0605 139.47 45.3989 132.145C34.7372 124.821 26.5598 114.422 21.9556 102.334C26.2583 114.735 34.3174 125.488 45.0129 133.098C55.7084 140.709 68.509 144.798 81.6356 144.798C94.7622 144.798 107.563 140.709 118.258 133.098C128.954 125.488 137.013 114.735 141.316 102.334C136.711 114.422 128.534 124.821 117.872 132.145C107.211 139.47 94.5707 143.372 81.6356 143.334Z" fill="white"/>
<path d="M81.6356 17.9741C94.5707 17.9356 107.211 21.8384 117.872 29.163C128.534 36.4875 136.711 46.8861 141.316 58.9741C137.013 46.5727 128.954 35.8197 118.258 28.2096C107.563 20.5995 94.7622 16.5103 81.6356 16.5103C68.509 16.5103 55.7084 20.5995 45.0129 28.2096C34.3174 35.8197 26.2583 46.5727 21.9556 58.9741C26.5598 46.8861 34.7372 36.4875 45.3989 29.163C56.0605 21.8384 68.7004 17.9356 81.6356 17.9741Z" fill="white"/>
</g>
</g>
<defs>
<linearGradient id="paint0_linear_264_6731" x1="79.4731" y1="88.8494" x2="94.5169" y2="36.8933" gradientUnits="userSpaceOnUse">
<stop stop-color="white" stop-opacity="0"/>
<stop offset="1" stop-color="white"/>
</linearGradient>
</defs>
</svg>
